<svg width="110" height="35" viewBox="0 0 110 35" fill="none" xmlns="http://www.w3.org/2000/svg">
<path d="M0 14C0 6.26801 6.26802 0 14 0H20.5968C28.3288 0 34.5968 6.26801 34.5968 14V35H14C6.26802 35 0 28.732 0 21V14Z" fill="#00634B"/>
<path d="M30.3311 17.3423V30.6906H17.456C10.1748 30.6906 4.2655 24.7094 4.2655 17.4207C4.2655 10.2192 10.1042 4.30957 17.2983 4.30957C24.4961 4.30957 30.3311 10.1445 30.3311 17.3423Z" stroke="white"/>
<path d="M23.7879 17.8025C23.7879 18.0939 23.7479 18.5634 23.6679 19.2109H14.7623C14.8904 20.2147 15.2264 20.9513 15.7705 21.4208C16.3306 21.8903 17.2348 22.125 18.483 22.125C19.8912 22.125 21.3555 21.8822 22.8757 21.3965V23.8977C21.4195 24.4967 19.6992 24.7962 17.7148 24.7962C15.7465 24.7962 14.1782 24.2134 13.01 23.0478C11.8578 21.8822 11.2817 20.2309 11.2817 18.0939C11.2817 16.0379 11.8578 14.3785 13.01 13.1157C14.1622 11.8367 15.6745 11.1973 17.5468 11.1973C19.4031 11.1973 20.9074 11.8044 22.0596 13.0186C23.2118 14.2328 23.7879 15.8274 23.7879 17.8025ZM19.4672 14.6456C19.0031 14.0628 18.363 13.7714 17.5468 13.7714C16.7307 13.7714 16.0826 14.0628 15.6025 14.6456C15.1224 15.2122 14.8344 16.0055 14.7383 17.0254H20.3553C20.2433 16.0055 19.9472 15.2122 19.4672 14.6456Z" fill="white"/>
<path d="M49.6459 26.4847H57.4472V29.3988H46.1653V11.4287H49.6459V26.4847Z" fill="black"/>
<path d="M70.9044 22.6479C70.9044 22.9393 70.8644 23.4088 70.7843 24.0563H61.8788C62.0068 25.0601 62.3429 25.7967 62.887 26.2662C63.4471 26.7356 64.3512 26.9704 65.5994 26.9704C67.0077 26.9704 68.4719 26.7276 69.9922 26.2419V28.7431C68.536 29.3421 66.8157 29.6416 64.8313 29.6416C62.863 29.6416 61.2947 29.0588 60.1265 27.8932C58.9743 26.7276 58.3982 25.0763 58.3982 22.9393C58.3982 20.8832 58.9743 19.2238 60.1265 17.9611C61.2787 16.6821 62.791 16.0426 64.6633 16.0426C66.5196 16.0426 68.0239 16.6497 69.1761 17.8639C70.3283 19.0781 70.9044 20.6728 70.9044 22.6479ZM66.5836 19.491C66.1195 18.9081 65.4794 18.6167 64.6633 18.6167C63.8471 18.6167 63.199 18.9081 62.7189 19.491C62.2389 20.0576 61.9508 20.8509 61.8548 21.8708H67.4718C67.3597 20.8509 67.0637 20.0576 66.5836 19.491Z" fill="black"/>
<path d="M84.3596 20.8994V29.5202C83.2874 29.5202 82.3113 29.2855 81.4311 28.816C80.1989 29.3664 78.8707 29.6416 77.4464 29.6416C75.9582 29.6416 74.79 29.2855 73.9418 28.5731C73.0937 27.8446 72.6696 26.8409 72.6696 25.5619C72.6696 24.2668 73.1337 23.2631 74.0618 22.5507C74.99 21.8384 76.2862 21.4822 77.9505 21.4822C78.9267 21.4822 79.9429 21.6522 80.999 21.9922V21.2151C80.999 20.4218 80.743 19.8066 80.2309 19.3695C79.7348 18.9324 79.0227 18.7139 78.0945 18.7139C76.6863 18.7139 75.23 18.9243 73.7258 19.3453V16.8683C75.15 16.3179 76.8383 16.0426 78.7907 16.0426C80.551 16.0426 81.9192 16.4717 82.8954 17.3297C83.8715 18.1877 84.3596 19.3776 84.3596 20.8994ZM76.1502 25.4891C76.1502 26.0395 76.3822 26.4685 76.8463 26.7761C77.3264 27.0675 77.9745 27.2132 78.7907 27.2132C79.5428 27.2132 80.2789 27.0675 80.999 26.7761V24.1535C80.3109 23.8459 79.5748 23.6921 78.7907 23.6921C77.9745 23.6921 77.3264 23.854 76.8463 24.1777C76.3822 24.4853 76.1502 24.9225 76.1502 25.4891Z" fill="black"/>
<path d="M95.2309 16.0426V19.2481C93.5826 19.2481 92.1823 19.4424 91.0301 19.8309V29.3988H87.6696V16.1641C88.8698 16.1641 89.8939 16.4231 90.7421 16.9412C92.0703 16.3421 93.5666 16.0426 95.2309 16.0426Z" fill="black"/>
<path d="M105.127 16.0426C106.695 16.0426 107.896 16.4717 108.728 17.3297C109.576 18.1715 110 19.4505 110 21.1665V29.3988H106.639V21.458C106.639 19.6286 105.679 18.7139 103.759 18.7139C102.847 18.7139 101.847 18.981 100.758 19.5152V29.3988H97.3978V16.1641C98.71 16.1641 99.7822 16.4555 100.614 17.0383C102.151 16.3745 103.655 16.0426 105.127 16.0426Z" fill="black"/>
</svg>
