<svg width="384" height="53" viewBox="0 0 384 53" fill="none" xmlns="http://www.w3.org/2000/svg">
<path fill-rule="evenodd" clip-rule="evenodd" d="M181.734 0.132731C157.928 1.22797 112.217 11.2961 69.2191 24.915C65.7518 26.0133 61.1839 27.4611 59.0682 28.1324C30.5394 37.1845 15.1963 42.8929 4.4566 48.4514C0.265231 50.6209 -0.0948598 50.8838 0.0160524 51.6944C0.17804 52.8773 0.859969 52.6946 8.63729 49.3847C16.6852 45.9599 23.8985 43.473 43.6815 37.3032C109.8 16.6823 140.683 9.12269 175.323 5.07923C182.111 4.28677 192.954 4.42478 192.954 5.30349C192.954 6.47725 186.153 10.4802 170.408 18.5747C151.038 28.5329 139.246 35.1386 138.201 36.6167C136.417 39.1423 138.379 40.9648 142.626 40.7259C145.053 40.5894 145.604 40.4861 156.731 38.0829C188.676 31.1828 209.093 27.6808 236.763 24.355C278.9 19.2902 305.748 17.4217 356.223 16.0407C374.36 15.5446 375.298 15.4754 378.646 14.3892C379.936 13.9705 381.478 13.5614 382.071 13.4798C383.462 13.2889 383.445 13.0447 382.028 12.8647C381.411 12.7862 379.993 12.4115 378.876 12.032C376.123 11.0962 374.298 11.0473 358.574 11.4879C305.863 12.9647 278.128 14.8532 237.938 19.7022C216.801 22.2523 207.383 23.638 191.992 26.4619C181.47 28.3923 153.698 34.0122 149.807 34.998C147.684 35.5359 156.899 30.4618 173.083 22.1804C193.556 11.7049 197.631 8.85972 197.65 5.03235C197.672 0.716406 193.951 -0.429045 181.734 0.132731Z" fill="#00634B"/>
</svg>
