<svg width="230" height="129" viewBox="0 0 230 129" fill="none" xmlns="http://www.w3.org/2000/svg">
<g clip-path="url(#clip0_4_89)">
<path d="M198.71 102.098C190.952 92.7649 177.997 79.8108 165.971 70.2099C154.012 60.5356 143.341 54.1237 142.678 54.8588C141.926 55.6617 151.178 63.4311 161.813 73.7895C172.531 84.1011 184.394 97.1899 191.949 106.271C197.948 113.371 201.294 117.367 203.475 119.456C202.258 119.313 201.024 119.143 199.79 118.973C196.664 118.47 193.628 117.99 190.752 117.549C184.969 116.592 179.713 115.743 175.297 115.101C166.471 113.797 160.929 113.327 160.753 114.137C160.576 114.947 165.825 116.896 174.481 119.282C178.812 120.464 184.003 121.769 189.808 123.024C192.711 123.651 195.783 124.275 199.012 124.848C200.627 125.135 202.297 125.39 204.052 125.599C205.132 125.708 209.99 126.414 211.435 123.782C211.632 123.471 211.869 123.193 212.021 122.871L212.399 122.02C212.6 121.598 212.689 121.238 212.834 120.847C213.096 120.08 213.324 119.35 213.502 118.63C213.909 117.179 214.209 115.77 214.503 114.382C215.065 111.622 215.487 108.94 215.849 106.4C216.552 101.315 216.965 96.7197 217.2 92.845C217.647 85.0898 217.31 80.2195 216.359 80.0744C215.407 79.9293 213.984 84.5217 212.301 92.0165C211.493 95.7723 210.541 100.211 209.485 105.165C208.952 107.617 208.409 110.202 207.783 112.834C207.715 113.11 207.642 113.406 207.574 113.682C205.891 111.041 203.125 107.324 198.71 102.098Z" fill="#1F3B24"/>
<path d="M133.657 48.4944C134.529 47.4965 132.066 44.5057 128.053 41.941C124.073 39.3396 115.371 35.4818 114.614 36.5981C113.895 37.6565 121.2 43.1696 125.077 45.7006C128.988 48.1949 132.779 49.5136 133.657 48.4944Z" fill="#1F3B24"/>
<path d="M104.753 31.1953C105.306 30.3207 102.178 27.6825 97.6586 25.5097C93.155 23.2733 83.6873 20.0802 83.2546 21.052C82.8376 21.9603 91.3735 26.5862 95.7863 28.8002C100.197 30.9238 104.177 32.0643 104.753 31.1953Z" fill="#1F3B24"/>
<path d="M75.2426 17.8141C75.5619 17.1065 71.9642 15.004 67.1273 13.3371C62.3114 11.5854 52.472 9.31171 52.2557 10.0898C52.0551 10.8043 61.3868 14.256 66.1172 15.9641C70.858 17.6298 74.918 18.543 75.2426 17.8141Z" fill="#1F3B24"/>
<path d="M33.1129 6.39267C38.0945 7.37625 42.2051 7.98732 42.3359 7.4578C42.4563 6.97065 38.4992 5.54351 33.4495 4.54311C30.9272 4.03232 27.1448 3.45738 23.9837 3.19329C20.8279 2.90801 18.2988 2.91241 18.2814 3.17779C18.2919 3.42759 20.7565 3.8792 23.8286 4.50336C28.414 5.434 31.5088 6.06377 33.1129 6.39267Z" fill="#1F3B24"/>
</g>
<defs>
<clipPath id="clip0_4_89">
<rect width="217.26" height="77.7354" fill="white" transform="translate(18.8518 0.870117) rotate(13.8779)"/>
</clipPath>
</defs>
</svg>
