<svg width="24" height="24" viewBox="0 0 24 24" fill="none" xmlns="http://www.w3.org/2000/svg">
<g clip-path="url(#clip0_6_39)">
<path d="M10.586 2.1C10.94 1.74648 11.4136 1.53846 11.9134 1.51698C12.4132 1.49551 12.903 1.66214 13.286 1.984L13.414 2.101L15.314 4H18C18.5044 4.00009 18.9901 4.19077 19.3599 4.53384C19.7297 4.8769 19.9561 5.34702 19.994 5.85L20 6V8.686L21.9 10.586C22.2538 10.94 22.462 11.4139 22.4834 11.9139C22.5049 12.414 22.3381 12.9039 22.016 13.287L21.899 13.414L19.999 15.314V18C19.9991 18.5046 19.8086 18.9906 19.4655 19.3605C19.1224 19.7305 18.6521 19.9572 18.149 19.995L18 20H15.315L13.415 21.9C13.0609 22.2538 12.5871 22.462 12.087 22.4835C11.587 22.505 11.097 22.3382 10.714 22.016L10.587 21.9L8.68697 20H5.99997C5.49539 20.0002 5.0094 19.8096 4.63942 19.4665C4.26944 19.1234 4.04281 18.6532 4.00497 18.15L3.99997 18V15.314L2.09997 13.414C1.74616 13.06 1.53797 12.5861 1.51649 12.0861C1.49502 11.586 1.66182 11.0961 1.98397 10.713L2.09997 10.586L3.99997 8.686V6C4.00006 5.4956 4.19074 5.00986 4.53381 4.64009C4.87687 4.27032 5.34699 4.04383 5.84997 4.006L5.99997 4H8.68597L10.586 2.1ZM12 3.516L10.1 5.416C9.7678 5.74765 9.32956 5.95191 8.86197 5.993L8.68597 6H5.99997V8.686C6.00009 9.1559 5.83476 9.61083 5.53297 9.971L5.41397 10.101L3.51397 12.001L5.41397 13.9C5.74599 14.232 5.9506 14.6703 5.99197 15.138L5.99997 15.314V18H8.68597C9.15586 17.9999 9.6108 18.1652 9.97097 18.467L10.101 18.586L12 20.486L13.9 18.586C14.232 18.254 14.6702 18.0494 15.138 18.008L15.314 18H18V15.314C17.9998 14.8441 18.1652 14.3892 18.467 14.029L18.586 13.899L20.486 12L18.586 10.1C18.254 9.76798 18.0493 9.32972 18.008 8.862L18 8.686V6H15.314C14.8441 6.00012 14.3891 5.83479 14.029 5.533L13.899 5.414L11.999 3.514L12 3.516ZM15.08 8.984C15.2599 8.80465 15.5014 8.70053 15.7554 8.69277C16.0093 8.68502 16.2567 8.77422 16.4472 8.94225C16.6378 9.11028 16.7573 9.34455 16.7814 9.59748C16.8055 9.8504 16.7324 10.103 16.577 10.304L16.493 10.398L11.613 15.278C11.4224 15.4688 11.1685 15.5829 10.8993 15.5988C10.6302 15.6146 10.3646 15.5311 10.153 15.364L10.057 15.279L7.65297 12.875C7.47172 12.6955 7.36594 12.4534 7.35729 12.1985C7.34864 11.9435 7.43777 11.6948 7.60644 11.5034C7.7751 11.312 8.01055 11.1923 8.26459 11.1688C8.51863 11.1453 8.77205 11.2198 8.97297 11.377L9.06697 11.46L10.835 13.228L15.08 8.984Z" fill="#00634B"/>
</g>
<defs>
<clipPath id="clip0_6_39">
<rect width="24" height="24" fill="white"/>
</clipPath>
</defs>
</svg>
