<svg width="256" height="153" viewBox="0 0 256 153" fill="none" xmlns="http://www.w3.org/2000/svg">
<path fill-rule="evenodd" clip-rule="evenodd" d="M184.205 145.059C207.015 145.609 230.325 144.509 252.135 152.309C253.435 152.769 254.865 152.099 255.335 150.799C255.795 149.499 255.125 148.069 253.825 147.599C231.505 139.619 207.665 140.619 184.325 140.059C182.945 140.019 181.795 141.119 181.765 142.499C181.725 143.879 182.825 145.019 184.205 145.059Z" fill="#00634B"/>
<path fill-rule="evenodd" clip-rule="evenodd" d="M182.155 111.942C189.265 105.4 197.025 100.499 206.405 98.0698C207.745 97.7238 208.545 96.3588 208.205 95.0228C207.855 93.6868 206.485 92.8838 205.155 93.2298C194.955 95.8698 186.505 101.152 178.775 108.261C177.755 109.195 177.685 110.778 178.625 111.794C179.555 112.809 181.145 112.876 182.155 111.942Z" fill="#00634B"/>
<path fill-rule="evenodd" clip-rule="evenodd" d="M162.375 40.5187C165.635 29.3437 172.055 20.6017 181.895 14.2887C183.055 13.5437 183.395 11.9957 182.645 10.8347C181.905 9.67374 180.355 9.33571 179.195 10.0807C168.305 17.0707 161.185 26.7447 157.575 39.1177C157.185 40.4417 157.955 41.8317 159.275 42.2177C160.605 42.6047 161.995 41.8427 162.375 40.5187Z" fill="#00634B"/>
<path fill-rule="evenodd" clip-rule="evenodd" d="M50.0249 25.3526C48.0849 27.6356 46.3449 30.0956 44.8649 32.7146C44.2049 33.8806 43.0449 36.3586 42.8649 38.4836C42.6649 40.7476 43.4348 42.6577 45.4148 43.6637C48.0448 44.9977 50.1449 44.8587 51.7649 44.0517C53.3249 43.2767 54.5448 41.7537 55.3148 39.7117C56.7848 35.8087 56.5648 29.8437 55.7948 26.4397C57.8648 24.3037 60.1348 22.3666 62.5648 20.6446C80.6648 7.81964 107.215 12.5487 127.645 31.7247C134.795 38.4387 138.235 52.5386 140.025 67.7516C142.815 91.4386 141.225 117.895 141.005 125.646C140.955 127.56 141.135 128.696 141.235 128.923C141.705 130.039 142.535 130.329 143.115 130.439C143.955 130.589 144.625 130.429 145.165 130.149C145.895 129.765 146.495 129.089 146.775 128.046C146.925 127.47 146.965 126.668 146.945 125.813C146.925 125.22 146.805 124.572 146.925 124.147C147.705 121.425 148.645 118.767 149.565 116.09C152.635 107.091 156.605 98.6577 161.015 90.2347C175.025 63.4707 188.575 35.1916 211.545 14.8006C212.575 13.8856 212.675 12.3036 211.755 11.2717C210.845 10.2397 209.265 10.1456 208.225 11.0616C184.795 31.8556 170.875 60.6216 156.585 87.9156C152.835 95.0806 149.395 102.256 146.535 109.761C146.825 96.4847 146.715 78.1076 144.285 61.8476C142.125 47.3866 138.015 34.6066 131.065 28.0796C108.685 7.07263 79.4948 2.51566 59.6748 16.5657C57.5548 18.0697 55.5349 19.7237 53.6549 21.5177C43.2849 2.79268 21.0848 -4.71237 1.46484 4.24364C0.204836 4.81664 -0.345154 6.30065 0.224846 7.55565C0.804846 8.81065 2.28479 9.36467 3.54479 8.79167C21.2248 0.72167 41.2749 7.92364 50.0249 25.3526ZM51.4748 31.6216C50.6648 32.7656 49.9148 33.9517 49.2148 35.1777C48.8448 35.8357 48.2048 37.1007 47.9348 38.3387C47.8748 38.6287 47.8649 39.0826 47.8649 39.2926C48.5549 39.6326 49.0948 39.7967 49.5348 39.5757C50.0848 39.3037 50.3649 38.6637 50.6349 37.9487C51.3149 36.1547 51.5348 33.7766 51.4748 31.6216Z" fill="#00634B"/>
</svg>
